# xmcd CD database file
#
# Track frame offsets:
#	150
#	15383
#	36107
#	53093
#	82265
#	100410
#	121710
#	139535
#	157673
#	173994
#	195153
#	209759
#
# Disc length: 3184 seconds
#
# Revision: 0
# Processed by: cddbd v1.5.1PL0 Copyright (c) Steve Scherf et al.
# Submitted via: CDex 1.51
#
DISCID=930c6e0c
DTITLE=Isgaard - Golden Key
DYEAR=2003
DGENRE=New Age
TTITLE0=Anima
TTITLE1=Fold Your Hands And Pray
TTITLE2=Golden Key
TTITLE3=Earth Song
TTITLE4=Still Loving You
TTITLE5=Turn To Stone
TTITLE6=Waiting Just For You
TTITLE7=No Way Back To Eden
TTITLE8=Set Me Free
TTITLE9=Where The River Will Flow
TTITLE10=I Burn For You
TTITLE11=Dreams Will Never Die
EXTD=YEAR: 2003
EXTT0=
EXTT1=
EXTT2=
EXTT3=
EXTT4=
EXTT5=
EXTT6=
EXTT7=
EXTT8=
EXTT9=
EXTT10=
EXTT11=
PLAYORDER=
